<?xml version="1.0" encoding="utf-8"?>
<!-- Generator: Adobe Illustrator 17.0.0, SVG Export Plug-In . SVG Version: 6.00 Build 0)  -->
<!DOCTYPE svg PUBLIC "-//W3C//DTD SVG 1.1//EN" "http://www.w3.org/Graphics/SVG/1.1/DTD/svg11.dtd">
<svg version="1.1" id="Layer_1" xmlns="http://www.w3.org/2000/svg" xmlns:xlink="http://www.w3.org/1999/xlink" x="0px" y="0px"
	 width="41px" height="15px" viewBox="0 0 41 15" enable-background="new 0 0 41 15" xml:space="preserve">
<g>
	<path fill="#EFEFEF" d="M37.658,0.02c-0.775,0-1.523,0.264-2.121,0.746c-0.053,0.037-0.104,0.079-0.151,0.126l-2.965,2.914V3.293
		c-0.007-1.805-1.506-3.273-3.343-3.273c-0.781,0-1.534,0.268-2.134,0.756c-0.048,0.035-0.094,0.073-0.136,0.115l-2.966,2.914V3.294
		C23.837,1.488,22.338,0.02,20.5,0.02c-0.778,0-1.528,0.265-2.125,0.749c-0.051,0.037-0.101,0.078-0.147,0.123l-2.964,2.913V3.292
		c-0.008-1.804-1.507-3.272-3.342-3.272c-0.773,0-1.52,0.263-2.116,0.742C9.751,0.8,9.699,0.843,9.65,0.891L0.897,9.492
		c-0.04,0.039-0.076,0.08-0.109,0.124C0.279,10.21,0,10.958,0,11.735c0,1.811,1.5,3.284,3.343,3.284
		c0.791,0,1.552-0.274,2.154-0.773c0.045-0.033,0.087-0.069,0.127-0.109l2.955-2.904v0.501c0,1.811,1.5,3.284,3.343,3.284
		c0.788,0,1.546-0.272,2.147-0.768c0.047-0.034,0.092-0.073,0.134-0.114l2.954-2.904v0.501c0,1.811,1.5,3.284,3.343,3.284
		c0.791,0,1.551-0.273,2.152-0.772c0.045-0.034,0.089-0.07,0.129-0.11l2.955-2.904v0.501c0,1.811,1.499,3.284,3.342,3.284
		c0.791,0,1.554-0.275,2.158-0.775c0.043-0.032,0.085-0.068,0.124-0.107l8.75-8.599c0.047-0.046,0.089-0.094,0.126-0.146
		C40.73,4.805,41,4.068,41,3.304C41,1.493,39.501,0.02,37.658,0.02z M39.267,4.704l-0.091,0.089l-0.001,0.001l-8.66,8.511
		l-0.003-0.001c-0.38,0.334-0.881,0.538-1.433,0.538c-1.185,0-2.144-0.944-2.144-2.107V8.392l-4.999,4.913l-0.003-0.001
		c-0.378,0.334-0.881,0.538-1.432,0.538c-1.184,0-2.145-0.944-2.145-2.107V8.392l-4.998,4.913l-0.004-0.001
		c-0.38,0.334-0.881,0.538-1.431,0.538c-1.185,0-2.145-0.944-2.145-2.107V8.392l-5,4.913l-0.003-0.001
		c-0.38,0.334-0.882,0.538-1.432,0.538c-1.184,0-2.145-0.944-2.145-2.107c0-0.542,0.208-1.034,0.548-1.408l-0.002-0.002l8.752-8.601
		l0.004,0.002c0.378-0.329,0.875-0.529,1.422-0.529c1.181,0,2.139,0.939,2.144,2.1v3.35l5.009-4.923l0.003,0.002
		c0.378-0.329,0.877-0.529,1.422-0.529c1.182,0,2.141,0.939,2.144,2.1v3.35l5.011-4.923l0.002,0.002
		c0.379-0.329,0.878-0.529,1.422-0.529c1.182,0,2.141,0.939,2.145,2.1v3.35l5.01-4.923l0.003,0.002
		c0.379-0.329,0.876-0.529,1.422-0.529c1.184,0,2.144,0.944,2.144,2.107c0,0.536-0.204,1.026-0.539,1.397L39.267,4.704z"/>
</g>
</svg>
