<?xml version="1.0" encoding="utf-8"?> <!-- Generator: IcoMoon.io --> <!DOCTYPE svg PUBLIC "-//W3C//DTD SVG 1.1//EN" "http://www.w3.org/Graphics/SVG/1.1/DTD/svg11.dtd"> <svg width="16" height="16" viewBox="0 0 16 16" xmlns="http://www.w3.org/2000/svg" xmlns:xlink="http://www.w3.org/1999/xlink" fill="#efefef"><g><path d="M 13.714,8q0,2.241 -1.308,4.031t-3.379,2.478q-0.241,0.045 -0.353-0.063t-0.112-0.268l0-1.884 q0-0.866 -0.464-1.268q 0.509-0.054 0.915-0.161t 0.839-0.348t 0.723-0.594t 0.473-0.938t 0.183-1.344q0-1.080 -0.705-1.839q 0.33-0.813 -0.071-1.821q-0.25-0.080 -0.723,0.098t-0.821,0.393l-0.339,0.214q-0.83-0.232 -1.714-0.232t-1.714,0.232q-0.143-0.098 -0.379-0.241t-0.746-0.344t-0.768-0.121 q-0.393,1.009 -0.063,1.821q-0.705,0.759 -0.705,1.839q0,0.759 0.183,1.339t 0.469,0.938t 0.719,0.598t 0.839,0.348t 0.915,0.161q-0.357,0.321 -0.438,0.92q-0.188,0.089 -0.402,0.134t-0.509,0.045t-0.585-0.192t-0.496-0.558q-0.17-0.286 -0.433-0.464t-0.442-0.214l-0.179-0.027q-0.188,0 -0.259,0.040t-0.045,0.103t 0.080,0.125t 0.116,0.107l 0.063,0.045q 0.196,0.089 0.388,0.339t 0.281,0.455l 0.089,0.205 q 0.116,0.339 0.393,0.549t 0.598,0.268t 0.621,0.063t 0.496-0.031l 0.205-0.036q0,0.339 0.004,0.795t 0.004,0.482q0,0.161 -0.116,0.268t-0.357,0.063q-2.071-0.688 -3.379-2.478t-1.308-4.031q0-1.866 0.92-3.442t 2.496-2.496t 3.442-0.92t 3.442,0.92t 2.496,2.496t 0.92,3.442z"></path></g></svg>