<?xml version="1.0" encoding="utf-8"?> <!-- Generator: IcoMoon.io --> <!DOCTYPE svg PUBLIC "-//W3C//DTD SVG 1.1//EN" "http://www.w3.org/Graphics/SVG/1.1/DTD/svg11.dtd"> <svg width="16" height="16" viewBox="0 0 16 16" xmlns="http://www.w3.org/2000/svg" xmlns:xlink="http://www.w3.org/1999/xlink" fill="#efefef"><g><path d="M 16,6.339l0,7.089 q0,0.589 -0.42,1.009t-1.009,0.42l-13.143,0 q-0.589,0 -1.009-0.42t-0.42-1.009l0-7.089 q 0.393,0.438 0.902,0.777q 3.232,2.196 4.438,3.080q 0.509,0.375 0.826,0.585t 0.844,0.429t 0.982,0.219l 0.009,0 l 0.009,0 q 0.455,0 0.982-0.219t 0.844-0.429t 0.826-0.585q 1.518-1.098 4.446-3.080q 0.509-0.348 0.893-0.777zM 16,3.714q0,0.705 -0.438,1.348t-1.089,1.098 q-3.357,2.33 -4.179,2.902q-0.089,0.063 -0.379,0.272t-0.482,0.339t-0.464,0.29t-0.513,0.241t-0.446,0.080l-0.009,0 l-0.009,0 q-0.205,0 -0.446-0.080t-0.513-0.241t-0.464-0.29t-0.482-0.339t-0.379-0.272q-0.813-0.571 -2.339-1.629t-1.83-1.272q-0.554-0.375 -1.045-1.031t-0.491-1.219q0-0.696 0.371-1.161t 1.058-0.464l 13.143,0 q 0.58,0 1.004,0.42t 0.424,1.009z"></path></g></svg>